<svg id="圖層_3" data-name="圖層 3" xmlns="http://www.w3.org/2000/svg" viewBox="0 0 86.37 82.72"><defs><style>.cls-1{fill:#303030;}</style></defs><path class="cls-1" d="M84.87,75.85a5.73,5.73,0,1,1-11.46,0,5.57,5.57,0,0,1,.58-2.5l-6.57-3.81a38.19,38.19,0,0,1-5.29,3.69l2.93-5.07-.61-.35-2.73,4.73H57.3a22.68,22.68,0,0,0,5.14-5.9L43.05,55.36,23.64,66.64a22.68,22.68,0,0,0,5.14,5.9H24.37l-2.73-4.73-.35-.61L5.7,40.19l18.48-32,18.43,24A22.69,22.69,0,0,0,23.28,66L42.69,54.75V32.33l-.08-.11h.87l-.09.12V54.75L62.79,66A22.45,22.45,0,0,0,65.72,54.9,22.68,22.68,0,0,0,43.48,32.22l18.43-24,18.49,32-15.6,27,.61.35L81.1,40.37l.1-.18-19-32.87-.09-.16H24L5,40l-.1.17,15.8,27.36.35.61,2.83,4.9.1.17a36.74,36.74,0,0,1-5.31-3.69l-6.42,3.74a5.69,5.69,0,1,1-.35-.61l6.2-3.61a38.19,38.19,0,1,1,49.9,0l6.34,3.68a5.72,5.72,0,0,1,10.54,3.11Z"/><path class="cls-1" d="M56.4,73.23h5.72a38.16,38.16,0,0,1-38.15,0h5.71a22.69,22.69,0,0,0,26.72,0Z"/><path class="cls-1" d="M24.8,7.85,42.69,31.17l.36.47.34-.44L61.28,7.85ZM38.07,20.1l4.62-8,.36-.62.34.59,4.62,8Z"/></svg>