<?xml version="1.0" encoding="UTF-8"?>
<svg id="_圖層_1" data-name="圖層 1" xmlns="http://www.w3.org/2000/svg" viewBox="0 0 319.11 306.76">
  <defs>
    <style>
      .cls-1 {
        <!-- fill: rgb(255, 145, 0); -->
        fill:black;
      }
    </style>
  </defs>
  <path class="cls-1" d="m87.12,126.98l-1.01-8.45c-.66-5.54-3.88-10.44-8.6-13.25-.68-.41-1.39-.77-2.13-1.09l-1.96-.85-.89-1.3-7.61-11.05-2.86-4.16-.94-1.36c-.48-.69-1.24-1.09-2.08-1.09-.07,0-.14,0-.21.01-.91.07-1.69.61-2.08,1.43l-4.96,10.42-.29.03c-3.31.28-6.48,1.5-9.16,3.5l-.84.63-5.86,4.38-1.17.88-5.43,4.06c-.95.71-1.83,1.52-2.62,2.4l-.09.11-13.36,3.72c-.81.23-1.42.85-1.63,1.67-.21.82.03,1.66.63,2.25l1.9,1.87,8.6,8.43.94,7.91.55,4.59c.05.42.12.84.2,1.26,1.11,5.8,5.05,10.74,10.53,13.08l7.83,3.36c10.44,4.48,22.59,3.03,31.69-3.79l.34-.25c9.11-6.81,13.93-18.06,12.57-29.35Zm-40.31,2.59c.47-.57,1.81-.23,2.99.75,1.19.97,1.77,2.23,1.3,2.8-.47.57-1.81.23-2.99-.74-1.19-.98-1.77-2.24-1.3-2.81Zm-7.42,16.53c-.16-.45.32-1.03,1.08-1.31.76-.27,1.5-.14,1.67.31.16.45-.33,1.03-1.09,1.31-.75.27-1.5.13-1.66-.31Zm3.92,1.34c-.6.54-1.34.69-1.66.34s-.09-1.08.51-1.62c.6-.54,1.34-.69,1.66-.34.32.35.09,1.07-.51,1.62Zm-1.76-5.05c-2.06,1.36-3.94.11-4.09.01,1.36.62,2.33-1.14,2.33-1.14,3.72-5.57,12.81-2.84,12.81-2.84-9,.3-8.9,2.54-11.05,3.97Zm28.06-24.5s1.88-.64,1.53-2.08c.12.26.93,2.27-.72,4.01-1.78,1.87-3.97,1.39-5.82,10.19,0,0-1.12-9.43,5.01-12.12Zm-7.33,23.81l3.09-2.6c.32-.27.8-.04.79.38l-.05,3.07c0,.29-.27.51-.55.47l-3.04-.48c-.41-.06-.55-.57-.24-.84Zm-2.5-15.33c-.57.47-1.83-.1-2.82-1.27-.99-1.18-1.33-2.52-.77-2.99.56-.48,1.82.09,2.82,1.27.99,1.18,1.33,2.51.77,2.99Zm14.57,17.1c-.43,2.47-3.68,3.06-5.89,3.08-.37,1.42-.88,2.9-1.84,4.03-1.09,1.27-2.69,1.43-4.07.53-.77-.5-1.45-1.19-1.97-1.95-.45-.67.63-1.29,1.08-.63.02.03.07.1.1.14.16.2.33.39.5.58.45.47.95.89,1.48,1.09.63.23,1.18.16,1.73-.36,1.11-1.06,1.55-2.79,1.91-4.22.07-.26.33-.46.6-.46,1.18.04,2.32-.1,3.43-.49.66-.23,1.36-.63,1.61-1.22.41-.96-.22-2.09-.73-2.89-.43-.68.65-1.31,1.08-.63.63,1,1.18,2.19.98,3.4Zm-.84-24.38c-.4-.25-.37-1.01.07-1.69.44-.68,1.12-1.02,1.52-.76.39.26.36,1.01-.08,1.69s-1.11,1.02-1.51.76Zm2.85,1.44c-.6.54-1.34.7-1.66.34-.32-.35-.09-1.07.51-1.61.6-.54,1.35-.7,1.66-.35.32.36.09,1.08-.51,1.62Z"/>
  <path class="cls-1" d="m105.72,101.43c-1.38,5.77-7.95,10.15-14.27,13.15-1.64.12-3.65,1-5.24,1.97l-.69-3.96-.58-1.03c3.97-1.79,8.54-4.03,11.77-6.4.44-.33.85-.65,1.24-.98.48-.41.92-.82,1.3-1.23.83-.89,1.39-1.79,1.6-2.67.06-.26.11-.58.05-.97-.03-.24-.11-.5-.25-.8-.08-.18-.19-.38-.34-.59-.08-.13-.19-.27-.3-.41-1.23-1.5-2.54-2.61-3.95-3.34-.16-.09-.32-.16-.48-.24-.16-.06-.31-.13-.47-.19-1.13-.44-2.33-.64-3.59-.62-4.81.07-13.21,6.45-17.49,10.14l-1.64-2.51c4.75-4.03,12.83-12.54,19.06-12.63,1.16-.01,2.28.1,3.37.34.19.04.36.08.54.13h.01c.18.04.36.09.54.15,1.91.57,3.69,1.55,5.34,2.92.17.14.33.28.49.43.17.14.33.29.49.45.57.55,1.13,1.15,1.66,1.8,2.26,2.77,2.24,5.39,1.84,7.1Z"/>
  <g>
    <path class="cls-1" d="m99.86,99.23c-.4,1.08-.88,2.12-1.42,3.12-2.23,2.34-6.94,5.14-14.08,8.35l-.08-.11c4.24-3.15,10.08-8.59,11.59-15.42,1.18.67,2.29,1.65,3.36,2.96.36.44.55.8.63,1.1Z"/>
    <path class="cls-1" d="m101.18,90.32c-1.72-1.31-3.58-2.22-5.56-2.71-.71-2.55-2.05-5.11-4.03-7.67-16.47-21.34-3.99-34.72-1.6-36.97l3.11,3.92c-2.1,1.99-11.22,12.29,2.45,30,3.41,4.41,5.29,8.9,5.63,13.43Z"/>
  </g>
  <path class="cls-1" d="m83.42,54l4.12,2.77c.92.62,2.14.53,2.96-.21l11.32-10.24c1.16-1.05,1.03-2.91-.27-3.79l-11.01-7.42c-1.35-.91-3.19-.25-3.66,1.31l-4.43,14.89c-.3,1.01.09,2.1.96,2.69Z"/>
  <path class="cls-1" d="m63.31,16.21l1.65,4.68c.37,1.04,1.4,1.7,2.5,1.6l15.2-1.46c1.56-.15,2.56-1.72,2.04-3.2l-4.41-12.52c-.54-1.53-2.41-2.1-3.72-1.13l-12.43,9.3c-.84.63-1.18,1.74-.83,2.73Z"/>
  <circle class="cls-1" cx="101.76" cy="74.76" r="3.03"/>
  <circle class="cls-1" cx="92.82" cy="66.11" r="4.57"/>
  <circle class="cls-1" cx="60.54" cy="17.57" r="4.57"/>
  <circle class="cls-1" cx="53.92" cy="24.77" r="2.62"/>
  <path class="cls-1" d="m63.51,35.84c4.69,14.42,2.1,26.59-.92,34.29-2.01,5.12-5.25,9.62-9.38,13.02-7.76,6.39-10.56,11.93-11.45,15.8-.01,0-.01.01-.02.01l-6.24,4.67c-.44-4.88.89-14.39,13.9-25.11,3.33-2.75,5.96-6.41,7.6-10.59,2.68-6.83,4.98-17.68.7-30.56l-.11-.33-.04-.34c-.65-7.05,1.78-21.45,15.62-25.45l1.67,5.76c-11.67,3.38-11.46,16.56-11.33,18.83Z"/>
  <path class="cls-1" d="m101.94,73.39c-1.46-5.71-4.25-6.5-7.21-7.34-1.71-.48-3.47-.98-4.83-2.51-3.56-3.99-3.36-6.99-3.35-7.12l1,.08-.5-.04.5.04s-.15,2.74,3.09,6.38c1.17,1.31,2.71,1.75,4.36,2.21,2.96.84,6.31,1.79,7.91,8.05l-.97.25Z"/>
  <path class="cls-1" d="m55.06,26.36c-.5,0-.93-.05-1.28-.15l.26-.96c1.32.36,4.31-.09,7.77-1.93l.47.88c-2.89,1.54-5.48,2.16-7.23,2.16Z"/>
  <path class="cls-1" d="m32.41,105.94l-3.97,2.97c-.96.72-1.86,1.54-2.66,2.43l-13.08,3.64c-1.16.32-2.03,1.22-2.33,2.38-.3,1.17.04,2.37.9,3.22l2.09,2.05c-1.52,2.94-1.84,6.41-.96,10.52.49,2.28,1.59,3.69,3.47,4.44,1.75.7,3.98.86,6.54.6l.55,4.59c.05.42.12.85.19,1.26-1.11.12-2.17.19-3.2.19-2.34,0-4.46-.33-6.3-1.06-3.75-1.5-6.21-4.53-7.11-8.77-1.47-6.88-.31-12.79,3.45-17.56,5.66-7.19,15.91-9.89,22.42-10.9Z"/>
  <path class="cls-1" d="m42.53,166.47c3.96,1.79,8.38,2.69,12.7,2.99,8.83.62,17.5-2.18,24.06-8.18,5.35-4.89,8.88-11.39,11.42-18.1.48-1.26-.53-2.74-1.75-3.08-1.4-.39-2.6.48-3.08,1.75-2.06,5.43-4.91,10.65-8.96,14.76-1.76,1.78-3.13,2.89-5.23,4.17-.91.55-1.84,1.05-2.8,1.49-.21.1-.42.19-.63.28.43-.18-.21.08-.34.13-.48.19-.97.36-1.46.52-.92.3-1.85.55-2.79.75-.44.1-.88.18-1.33.25-.2.03-.41.06-.61.1-.37.06.43-.05.06,0-.13.02-.27.03-.4.05-1.72.2-3.45.25-5.18.18-.8-.03-1.59-.09-2.38-.18-.2-.02-.39-.05-.59-.07-.52-.06.16.03,0,0-.37-.06-.74-.11-1.11-.18-1.27-.22-2.53-.5-3.77-.85-.95-.26-1.88-.56-2.8-.9-.27-.1-.53-.22-.8-.31-.3-.11.76.33.29.12-1.23-.56-2.69-.35-3.42.9-.63,1.07-.34,2.86.9,3.42h0Z"/>
  <path class="cls-1" d="m90.75,167.77c0,1.58-.48,3.05-1.3,4.28-1.38,2.05-3.73,3.41-6.39,3.41-4.24,0-7.69-3.45-7.69-7.69v-.05c.03-4.22,3.47-7.64,7.69-7.64s7.69,3.45,7.69,7.69Z"/>
  <g>
    <path class="cls-1" d="m94.79,224.15s6.69,13.62,1.71,16.38c-4.98,2.75-46.81.74-46.81.74,9.53-19.5,3.3-59.85,1.34-61.69-1.86-1.76-6.82.17-7.25.33.22-.19,2.1-1.71,4.77-3.18,2.84-1.56,11.51-.57,10.09-1.03-1.42-.47-1.4-5.36-1.4-5.36,2.16-.09,15.67-2.23,15.67-2.23,1.44.55,0,0,1.86.57,0,.1,0,.21,0,.31,0,3.79,3.51,6.87,7.81,6.87,2.81,0,6.93-2.02,8.3-3.98,5.16,1.27,7.46,2.88,7.46,2.88,0,0-18.92,19.13-22.19,22.63-3.27,3.5-2.56,5.88-2.56,5.88-2.71,9.37-7.82,9.63-6.26,19.88,1.56,10.26,12.37,10.88,15.24,10.76,2.86-.13,8.08-5,7.37-6.5-.73-1.5,0-7.37,0-7.37l4.85,4.13Z"/>
    <path class="cls-1" d="m46.66,180.1s-13.26,6.52-10.96,14.41c2.3,7.89,7.64,9.56,11.88,6.85,4.24-2.71,4.74-5.46,4.31-6.86s.25-3.15.25-3.15c0,0,.14-13.65-5.48-11.24Z"/>
    <path class="cls-1" d="m44.33,203.46s6.67-.43,8.73-5.22c0,0,3.03,25.27-3.76,42l-4.97-36.78Z"/>
    <path class="cls-1" d="m85,117.49s4.39,1.25,7.05,16.14c0,0,.11,7.19-1.19,10.71,0,0-.69,14.74,7.48,22.68,0,0,2.46,3.76,2.46,6.43s-26.1,25.73-24.15,29.13c0,0,17.01,5.75,24.15,15.17,7.14,9.41,8.36,33.7,7.02,33.81,0,0,37.5-15.08,40.05-20.75s-4.26-2.89-2.92-28.67c0,0-4.14-7.27-3.04-16.58s2.43-14.34,1.7-15.73,8.82-6.73,9.93-6.88,20.11-8.74,39.67,1.47c0,0,22.14-14.76,29.71-3.24,0,0,2.03,3.77,1.48,5.86,0,0,3.32-4.15-2.03-10.11s-31.37-39.37-64.58-32.72c0,0-18.27,0-27.31-2.59s-32.8-8.71-40.53-6.35l-4.94,2.25Z"/>
    <path class="cls-1" d="m217.34,159.62s-2.81-4.38-25.9,7.39c0,0-52.83-18.89-47.19,20.33,0,0,6.92,18.71,37.71,28.39,0,0,5.39,1.59,4.35,3.5,0,0-13.5,9.57-18.67,12.05-5.18,2.48-20.31,21.86-5.69,28.62,0,0,4.23.87,7.29-1.04-.03,0-.05,0-.07-.02-.58-.34-.55-1.29.07-2.13.63-.83,1.61-1.23,2.19-.89.38.22.49.69.36,1.22.52-.4,1.07-.82,1.65-1.28-.26-.06-.51-.16-.74-.29-1.82-1.06-1.73-4.01.22-6.6,1.94-2.58,4.99-3.83,6.81-2.77.89.51,1.32,1.49,1.3,2.65.61-.75,1.03-1.41,1.18-1.9.77-2.71,8.21-14.43,30.26-21.19,0,0,10.01-7.44-4.61-18.71,0,0,36.93-14.42,9.49-47.33Zm-49.42,97.58c-.63.84-1.61,1.23-2.19.89-.58-.34-.56-1.29.07-2.12.62-.84,1.6-1.23,2.19-.89.59.33.56,1.29-.06,2.12Z"/>
    <path class="cls-1" d="m184.73,258.2c-2.65,3.87-9.06,22.77-9.06,22.77,1.76,10.73-2.16,18.34-4.81,22.33-.8-.25-1.61-.56-2.13-.88l-.51.66c.57.33,1.38.65,2.19.91-.45.64-.84,1.16-1.13,1.56-.1.14-.21.26-.33.37-.67-.26-1.33-.58-1.88-.88l-.47.67c.25.13.83.44,1.56.75-2.22,1.03-5.44-.92-5.44-.92-12.65-4.39-2.19-29.38-1.25-33.37.6-2.54,1.83-7.01,2.19-11.59,2.53-.24,7.8-.25,10.03-2.39,3.07-2.92,8.84-9.48,13.54-16.33,2.18,7.62-.71,13.74-2.48,16.33Z"/>
    <path class="cls-1" d="m176.15,225.34c-3.93,3.02-13.6,5.33-20.25,18.84-5.51-4.74-12.08-8.94-12.08-8.94,7-3.9,5.73-7.33,5.73-7.33-4.49-6.68-3.1-23.38-2.93-25.35.17-1.98,1.03,1.98-2.08-7.29-.63-1.87-.93-3.48-1.01-4.86,3.18,6.08,11.97,17.62,35.06,26.59-2.63,1.93-4.24,4.63-2.45,8.33Z"/>
    <path class="cls-1" d="m90.94,218.86l3.21-6.54s8.69,5.38,11.41,20.39c0,0,3.52,19.04.96,17.91,0,0-2.03,1.41-3.63-9.47,0,0-5.12-16.41-6.72-17.35s-5.24-4.94-5.24-4.94Z"/>
    <path class="cls-1" d="m76.55,204.01s12.9,3.76,15.68,8.31c0,0-5.02,7.73-4.48,10.36s1.07,9.02-4.91,8.82c-5.98-.2-13.77-2.45-13.77-10.04,0,0,.32-7.5,3.84-9.85l3.64-7.6Z"/>
    <path class="cls-1" d="m205.38,193.01c15.9,4.77,35.1.02,45.99-12.65,12.85-14.95,14.02-34.22,15.46-52.98.74-9.63,2.08-19.29,5.01-28.52,1.03-3.25,1.77-5.22,3.24-7.99.55-1.05,1.16-2.05,1.79-3.06.34-.54.71-1.06,1.09-1.58-1.08,1.47.4-.46.65-.72.7-.73,1.41-1.42,2.16-2.09,1.17-1.05-1.13.76-.29.22.4-.26.78-.55,1.2-.78.76-.43,2.93-1.11.47-.35.26-.08,1.66-.75,1.87-.57.04.03.6-.11.65-.13,1.07-.47-2.31.41-.83.13.33-.06.78-.05,1.11-.02,1.96.21-2.08-.43-.84-.14,9.39,2.23,13.39-12.23,3.99-14.46-18.16-4.31-28.55,18.6-32.05,32.22-2.78,10.8-3.93,22.05-4.56,33.16-.54,9.5-1.49,19.2-5.31,28.04-2.4,5.57-5.39,9.95-10.18,13.63.61-.47-2.01,1.28-2.64,1.64-.98.56-2,1.08-3.04,1.54,1.36-.6-1.34.46-1.86.62-1.38.44-2.78.75-4.2,1.05-.39.08-.78.14-1.17.21-1.34.24,1.32-.07-.86.08-1.08.08-2.15.15-3.24.16-1.95.02-3.87-.14-5.81-.3-.58-.05-1.68-.31.65.09-.45-.08-.9-.12-1.35-.22-.53-.11-1.07-.22-1.61-.32-.51-.1-1.02-.23-1.51-.38-9.27-2.78-13.23,11.69-3.99,14.46h0Z"/>
    <path class="cls-1" d="m206.57,185.86c12.78,6.12,27.87,9.24,41.93,6.99,10.99-1.76,20.44-7.85,26.79-16.96s10.41-22.49,21.41-27.19c.99-.42,2.04-.73,3.08-.99.45-.11,3.05-.54,1.58-.37,1.63-.18,3.23-.11,4.87-.02,1.16.06-1.4-.36.38.09.53.13,1.07.27,1.61.39.89.2,3.14,1.25-.33-.25,3.74,1.62,8.01,1.08,10.26-2.69,1.89-3.15,1.02-8.65-2.69-10.26-14.91-6.47-31.13,1.16-40.68,13.2-7.4,9.32-10.29,22.88-21.8,28.23-7.59,3.53-16.67,3.04-24.25,1.45-3.8-.79-7.55-1.88-11.2-3.21-.97-.35-4.51-1.84-2.15-.8-.41-.18-.83-.36-1.23-.56-8.66-4.15-16.28,8.78-7.57,12.95h0Z"/>
  </g>
</svg>