<?xml version="1.0" encoding="UTF-8"?>
<svg id="_圖層_1" data-name="圖層 1" xmlns="http://www.w3.org/2000/svg" viewBox="0 0 34.91 65.75">
  <defs>
    <style>
      .cls-1 {
        fill: blue;
      }
    </style>
  </defs>
  <path class="cls-1" d="m34.91,4.52v56.74c0-3.13-8.87-4.99-17.45-4.99S0,58.13,0,61.25V4.52c0,3.12,8.88,4.99,17.46,4.99s17.45-1.87,17.45-4.99Z"/>
  <path class="cls-1" d="m34.2,4.52c0,2.03-6.88,4.28-16.74,4.28S.71,6.54.71,4.52,7.59.23,17.46.23s16.74,2.26,16.74,4.29Z"/>
  <path class="cls-1" d="m34.2,61.25c0,2.03-6.88,4.28-16.74,4.28S.71,63.28.71,61.25s6.88-4.28,16.74-4.28,16.74,2.26,16.74,4.28Z"/>
</svg>