<svg xmlns="http://www.w3.org/2000/svg" viewBox="0 0 46.57 33.12"><defs><style>.cls-1{fill:#040000;}</style></defs><g id="圖層_5" data-name="圖層 5"><path class="cls-1" d="M27,32.57V23.46A1.93,1.93,0,0,0,25,21.52H9.13a1.94,1.94,0,0,0-1.94,1.94v9.11a6.57,6.57,0,0,1-5-9.83L11.4,6.86a6.56,6.56,0,0,1,11.38,0L32,22.74A6.59,6.59,0,0,1,27,32.57Z"/><path class="cls-1" d="M40.44,26.17v-8a1.7,1.7,0,0,0-1.72-1.7H34L27.8,5.84a8.26,8.26,0,0,0-1.31-1.7l.28-.51a5.76,5.76,0,0,1,10,0l8,13.92A5.78,5.78,0,0,1,40.44,26.17Z"/></g></svg>