<svg xmlns="http://www.w3.org/2000/svg" viewBox="0 0 229.37 229.44"><defs><style>.cls-1{fill:#070606;}</style></defs><g id="圖層_23" data-name="圖層 23"><path class="cls-1" d="M147.94,221.54V185.77a7.61,7.61,0,0,0-7.67-7.61H77.85a7.59,7.59,0,0,0-7.61,7.61v35.77A25.79,25.79,0,0,1,50.75,183l36-62.35a25.78,25.78,0,0,1,44.67,0l36,62.35A25.86,25.86,0,0,1,147.94,221.54Z"/><path class="cls-1" d="M200.74,196.42V165.1a6.64,6.64,0,0,0-6.73-6.67H175.28l-24.12-41.8A32.55,32.55,0,0,0,146,110l1.11-2a22.6,22.6,0,0,1,39.17,0l31.56,54.62A22.69,22.69,0,0,1,200.74,196.42Z"/><path class="cls-1" d="M138.63,12,147,28.86a2.94,2.94,0,0,0,2.23,1.62l18.64,2.71a3,3,0,0,1,1.64,5.05L156,51.39a3,3,0,0,0-.85,2.62l3.19,18.57A3,3,0,0,1,154,75.7l-16.68-8.76a2.91,2.91,0,0,0-2.75,0L117.92,75.7a3,3,0,0,1-4.3-3.12L116.81,54a3,3,0,0,0-.85-2.62L102.47,38.24a3,3,0,0,1,1.64-5.05l18.64-2.71A2.94,2.94,0,0,0,125,28.86L133.32,12A3,3,0,0,1,138.63,12Z"/><rect class="cls-1" x="31.32" y="6.37" width="30.31" height="26.2" rx="9.44"/><path class="cls-1" d="M87.29,62.42V94.09a30,30,0,0,0-10.43,10.54l-.35.53L62.87,128.81l-29.8,51.52a30.41,30.41,0,0,0-2.4,25.88H19.26A10.83,10.83,0,0,1,8.48,195.38V182.2a5.1,5.1,0,0,1,5.15-5.09h.88a7.86,7.86,0,0,0,7.85-7.9V136.65a7.84,7.84,0,0,0-7.85-7.84h-.88a5.12,5.12,0,0,1-5.15-5.15V62.12L25.87,43.21,31,37.65H64.51l5.1,5.56Z"/></g></svg>