<svg xmlns="http://www.w3.org/2000/svg" viewBox="0 0 27.2 64.12"><defs><style>.cls-1{fill:#040000;}</style></defs><g id="圖層_5" data-name="圖層 5"><path class="cls-1" d="M25.65,53.85V59a2.42,2.42,0,0,1-1.4,2.2c-1.68.8-5,1.86-10.7,1.86s-9-1.06-10.7-1.86A2.42,2.42,0,0,1,1.45,59V53.85c0-2,.94-2.47.94-2.47A6.6,6.6,0,0,0,4,48.55a3.54,3.54,0,0,0,.13-1V39.43A4.21,4.21,0,0,0,2.8,35.94a1.08,1.08,0,0,1-.41-.86V17.81a1.43,1.43,0,0,1,.33-.91l5.45-6.39A1,1,0,0,1,9,10.14h9.19a1,1,0,0,1,.78.37l5.44,6.39a1.4,1.4,0,0,1,.35.91V35.08a1.14,1.14,0,0,1-.41.86A4.17,4.17,0,0,0,23,39.43v8.15a3.22,3.22,0,0,0,.15,1,6.5,6.5,0,0,0,1.62,2.83S25.65,51.85,25.65,53.85Z"/><path class="cls-1" d="M8,6.23V2.44a2.06,2.06,0,0,1,2.05-2h7a2.06,2.06,0,0,1,2.05,2V6.23a2.06,2.06,0,0,1-2.05,2h-7A2.06,2.06,0,0,1,8,6.23Z"/></g></svg>