<svg xmlns="http://www.w3.org/2000/svg" viewBox="0 0 21.24 22.2"><defs><style>.cls-1{fill:#040000;}</style></defs><g id="圖層_5" data-name="圖層 5"><path class="cls-1" d="M20.56,8.19v.75H7.19c-1.28,0-1.69-1.5-1.73-2.39C5.57,4.61,6.7,4.05,7.29,4h6.88a1.3,1.3,0,0,0,1.25-1H5.54V2.25h9.88a1.32,1.32,0,0,0-1.27-1H1.23V.48H14.17a2,2,0,0,1,2,2.14,2,2,0,0,1-2,2.14H7.31s-.78.09-1,1.26h9.88v.75H6.24a3.46,3.46,0,0,0,.13.6c.14.41.38.82.82.82Z"/><path class="cls-1" d="M2.34,10v3.76a1.2,1.2,0,0,0,.05.38c.27.93,1.65,5,5.12,5a1.08,1.08,0,0,1,0,1.5H6.92a.19.19,0,0,0-.19.2v.67a.19.19,0,0,0,.19.2h8.19a.19.19,0,0,0,.19-.2v-.67a.19.19,0,0,0-.19-.2h-.73a1.09,1.09,0,0,1,0-1.5c3.92,0,5.17-5.17,5.17-5.17V10Zm7.71,3.17L11,11.31l.94,1.81Z"/></g></svg>