<?xml version="1.0" encoding="UTF-8"?>
<svg id="_圖層_1" data-name="圖層 1" xmlns="http://www.w3.org/2000/svg" viewBox="0 0 152.42 44.03">
  <defs>
    <style>
      .cls-1 {
        fill: #0f0f0f;
      }
    </style>
  </defs>
  <path class="cls-1" d="m35.38,18h13.98v16.15c0,2.3-1.87,4.17-4.17,4.17h-5.64c-2.3,0-4.17-1.87-4.17-4.17v-16.15h0Z"/>
  <rect class="cls-1" y="38.32" width="152.42" height="5.71"/>
  <rect class="cls-1" x="95.73" y="19.69" width="30.11" height="1" transform="translate(56.17 118.67) rotate(-71.32)"/>
  <rect class="cls-1" x="100.74" y="21.93" width="28.82" height="1" transform="translate(42.38 114.44) rotate(-62.68)"/>
  <path class="cls-1" d="m57.76,13.03v7.22c0,7.57,6.13,13.7,13.7,13.7h9.51c7.57,0,13.71-6.13,13.71-13.7v-7.22h-36.92Zm18.46,13.47l-3.01-3.01,3.01-3.01,3,3.01-3,3.01Z"/>
  <rect class="cls-1" x="69.22" y="32.33" width="13.98" height="7.05"/>
  <path class="cls-1" d="m81.81,10.5h-19.91v-2h19.91c.87,0,1.57-.71,1.57-1.57s-.71-1.57-1.57-1.57h-13.86c-.77,0-1.51-.33-2.02-.91-.51-.58-.74-1.35-.64-2.12.18-1.32,1.32-2.32,2.65-2.32h9.38v2h-9.38c-.34,0-.63.25-.67.59-.04.27.09.45.16.54s.24.23.51.23h13.86c1.97,0,3.57,1.6,3.57,3.57s-1.6,3.57-3.57,3.57Z"/>
</svg>