<?xml version="1.0" encoding="utf-8"?>
<!-- Generator: Adobe Illustrator 27.5.0, SVG Export Plug-In . SVG Version: 6.00 Build 0)  -->
<svg version="1.1" id="_圖層_1" xmlns="http://www.w3.org/2000/svg" xmlns:xlink="http://www.w3.org/1999/xlink" x="0px" y="0px"
	 viewBox="0 0 33.4 95" style="enable-background:new 0 0 33.4 95;" xml:space="preserve">
<style type="text/css">
	.st0{fill:#0E0E0E;}
	.st1{font-family:'ArialUnicodeMS';}
	.st2{font-size:12px;glyph-orientation-vertical:0;writing-mode:tb;}
</style>
<rect x="8.4" class="st0" width="16.5" height="5.6"/>
<rect x="8.4" y="89.4" class="st0" width="16.5" height="5.6"/>
<path class="st0" d="M31.7,23.1c0.9,0,1.7,0.8,1.7,1.7v12.9c0,0.9-0.8,1.7-1.7,1.7c0.9,0,1.7,0.8,1.7,1.7v12.9
	c0,0.9-0.8,1.7-1.7,1.7c0.9,0,1.7,0.8,1.7,1.7v12.9c0,0.9-0.8,1.7-1.7,1.7c0.9,0,1.7,0.8,1.7,1.7v4c0,4.8-3.9,8.6-8.6,8.6H8.6
	c-4.8,0-8.6-3.9-8.6-8.6v-4c0-0.9,0.8-1.7,1.7-1.7c-0.9,0-1.7-0.8-1.7-1.7V57.3c0-0.9,0.8-1.7,1.7-1.7c-0.9,0-1.7-0.8-1.7-1.7V41.1
	c0-0.9,0.8-1.7,1.7-1.7c-0.9,0-1.7-0.8-1.7-1.7V24.8c0-0.9,0.8-1.7,1.7-1.7c-0.9,0-1.7-0.8-1.7-1.7v-3.9c0-4.8,3.9-8.6,8.6-8.6h16.1
	c4.8,0,8.6,3.8,8.6,8.6v3.9C33.4,22.4,32.6,23.1,31.7,23.1z"/>
<text transform="matrix(1 0 0 1 16.675 25.1243)" class="st0 st1 st2">ネクスト</text>
</svg>
