<svg xmlns="http://www.w3.org/2000/svg" viewBox="0 0 67.74 98.96"><defs><style>.cls-1{fill:rgb(215, 215, 215)}</style></defs><g id="圖層_23" data-name="圖層 23"><path class="cls-1" d="M4.61,46.53a29.42,29.42,0,0,0,1.87,3.39Zm54.17,3.88A31.3,31.3,0,0,0,61.22,46Z"/><path class="cls-1" d="M63.83,31.15h0A30.73,30.73,0,0,0,60.2,18.6,31.15,31.15,0,0,0,2.88,24.67a30.75,30.75,0,0,0-1.14,6.47h0c-.05.71-.08,1.43-.08,2.16a30.78,30.78,0,0,0,3,13.22l1.87,3.39L32.76,97.71l26-47.3L61.22,46a30.89,30.89,0,0,0,2.69-12.66C63.91,32.58,63.88,31.86,63.83,31.15ZM37,8.67,32.78,16,28.59,8.67Zm-17,22.48h0a13,13,0,0,1,25.71,0h0a12.76,12.76,0,0,1,.18,2.16,11.48,11.48,0,0,1-.14,1.86,13,13,0,0,1-25.8,0,11.48,11.48,0,0,1-.14-1.86A11.81,11.81,0,0,1,19.93,31.15ZM32.76,89.38,16.51,59.83h0a31.3,31.3,0,0,0,7.58,3.37L32.79,79l8.7-15.8A31.45,31.45,0,0,0,49,59.87Z"/></g></svg>