<?xml version="1.0" encoding="UTF-8"?>
<svg id="_圖層_2" data-name="圖層 2" xmlns="http://www.w3.org/2000/svg" viewBox="0 0 95.71 91.17">
  <defs>
    <style>
      .cls-1 {
        fill: black;
      }
    </style>
  </defs>
  <path class="cls-1" d="m95.71,0v5.24c-.62,1.06-1.37,2.01-2.22,2.87-2.68,2.68-6.4,4.34-10.51,4.34H16.62c-5.37,0-10.09-2.84-12.67-7.12V0h3.74v2.32h-1.42c.39.65,1.11,1.06,1.94,1.06h83.19c.83,0,1.55-.41,1.94-1.06h-1.37V0h3.74Z"/>
  <rect class="cls-1" x="15.36" y="17.9" width="67.95" height="3.38"/>
  <polygon class="cls-1" points="20.88 31.18 20.16 38.25 14.74 38.25 14.74 31.18 20.88 31.18"/>
  <polygon class="cls-1" points="86.54 31.18 86.54 38.25 79.34 38.25 78.62 31.18 86.54 31.18"/>
  <polygon class="cls-1" points="65.02 31.18 65.02 38.25 34.51 38.25 34.51 31.18 43.8 31.18 43.8 24.96 54.18 24.96 54.18 31.18 65.02 31.18"/>
  <polygon class="cls-1" points="31.93 26.25 31.93 88.22 17.63 88.22 22.74 38.25 23.46 31.18 23.98 26.25 31.93 26.25"/>
  <polygon class="cls-1" points="81.87 88.22 67.6 88.22 67.6 26.25 75.52 26.25 76.04 31.18 76.76 38.25 81.87 88.22"/>
</svg>