<?xml version="1.0" encoding="UTF-8"?>
<svg id="_圖層_1" data-name="圖層 1" xmlns="http://www.w3.org/2000/svg" viewBox="0 0 1440 1024">
  <defs>
    <style>
      .cls-1 {
        fill: #e2e2e2;
      }
    </style>
  </defs>
    <pattern id="bg" patternUnits="userSpaceOnUse" width="50"    height="50">
      <path class="cls-1" d="m2.59.28c.12-.37.65-.37.77,0l.72,2.17c.32.97,1.08,1.73,2.05,2.05l2.17.72c.37.12.37.65,0,.77l-2.17.72c-.97.32-1.73,1.08-2.05,2.05l-.72,2.17c-.07.21-.3.33-.51.26-.12-.04-.22-.14-.26-.26l-.72-2.17c-.32-.97-1.08-1.73-2.05-2.05l-2.17-.72c-.21-.07-.33-.3-.26-.51.04-.12.14-.22.26-.26L-.18,4.49c.97-.32,1.73-1.08,2.05-2.05L2.59.28Z"/>
    </pattern>
    <rect width="100%" height="100%" fill="url(#bg)"/>
  
</svg>