<svg id="圖層_4" data-name="圖層 4" xmlns="http://www.w3.org/2000/svg" viewBox="0 0 119.04 119.04"><defs><style>.cls-1{fill:#fff;}.cls-2{fill:none;stroke:#303030;stroke-miterlimit:10;}</style></defs><path class="cls-1" d="M45.14,20.85l-4.22,4.22h6l4.22-4.22Zm-23.42,0V70.17l4.22,4.22V25.07h13.7l4.22-4.22Zm4.22,75.77V83l-4.22-4.23v22.1H71l4.23-4.22Zm50.56,0-4.22,4.22h6l4.22-4.22Zm21-49.28V96.62H83.79l-4.22,4.22h22.14V51.56ZM52.39,20.85l-4.22,4.22H97.49V38.81L101.71,43V20.85Zm45.1,19.24v6l4.22,4.22v-6ZM21.72,71.45v6l4.22,4.23v-6Z"/><path class="cls-1" d="M21.72,71.45l-.94-.94-9.64-9.64,9.64-9.65v-6L5.12,60.87l16.6,16.59,4.22,4.23.9.89L40,95.72h6ZM77.39,95.72l-.89.9-4.22,4.22-.94.94-9.65,9.64-9.64-9.64H46l15.65,15.66,15.66-15.66,19.2-19.2v-6ZM61.69,4.29,26.84,39.15v6L46,26l.94-.94L52,20l9.68-9.68L71.38,20h6Zm40.92,72.23,15.66-15.65L102.61,45.21l-.9-.9-4.22-4.22-.94-.94L83.41,26h-6l34.85,34.86-9.68,9.68ZM78.25,20.85h-6l4.22,4.22h6ZM97.49,75.67v6l4.22-4.22v-6Zm-50.6,21h-6l4.23,4.22h6ZM21.72,44.27v6l4.22-4.22v-6Z"/><path class="cls-1" d="M67.6,60.87A5.64,5.64,0,1,1,62,55.23,5.64,5.64,0,0,1,67.6,60.87Z"/><path class="cls-1" d="M62,27.66S50.25,41.09,60.45,51a2.44,2.44,0,0,0,2.71,0C64.5,50,72.94,44.3,62,27.66Z"/><path class="cls-1" d="M62,94.07S50.31,80.64,60.51,70.74a2.43,2.43,0,0,1,2.72,0C64.56,71.7,73,77.43,62,94.07Z"/><path class="cls-1" d="M90.64,43S73.05,40.12,70,54a2.43,2.43,0,0,0,1.43,2.3C73,56.94,82.3,61.08,90.64,43Z"/><path class="cls-1" d="M90.25,77.75S84.24,61,70.62,65a2.43,2.43,0,0,0-1.32,2.37C69.48,69.05,70.37,79.21,90.25,77.75Z"/><path class="cls-2" d="M32.75,43.53s17.59-2.86,20.62,11a2.44,2.44,0,0,1-1.44,2.31C50.41,57.5,41.09,61.63,32.75,43.53Z"/><path class="cls-1" d="M33.13,78.3s6-16.78,19.63-12.71A2.44,2.44,0,0,1,54.09,68C53.9,69.6,53,79.76,33.13,78.3Z"/></svg>